<svg width="27" height="33" viewBox="0 0 27 33" fill="none" xmlns="http://www.w3.org/2000/svg">
<path d="M22.4454 17.1425C22.4081 13.0998 25.8405 11.133 25.9974 11.0415C24.0535 8.27816 21.0405 7.90061 19.9818 7.87051C17.4512 7.61086 14.9966 9.34686 13.7075 9.34686C12.3927 9.34686 10.4077 7.89559 8.26821 7.93824C5.51511 7.97963 2.93954 9.53375 1.52697 11.9471C-1.38823 16.8678 0.785949 24.0991 3.57893 28.0766C4.97607 30.0245 6.60863 32.1996 8.7455 32.123C10.8361 32.039 11.617 30.8236 14.1398 30.8236C16.6394 30.8236 17.3727 32.123 19.5521 32.0741C21.7957 32.039 23.2083 30.1174 24.5565 28.1518C26.1711 25.9191 26.8195 23.7203 26.8452 23.6074C26.7925 23.5898 22.4878 21.988 22.4454 17.1425Z" fill="white"/>
<path d="M18.3286 5.25397C19.453 3.88298 20.2223 2.01779 20.0088 0.125C18.3814 0.195243 16.3461 1.22254 15.1741 2.56342C14.1372 3.74501 13.2109 5.6817 13.4502 7.50299C15.2783 7.63595 17.1553 6.60363 18.3286 5.25397Z" fill="white"/>
</svg>
