<svg width="52" height="52" viewBox="0 0 52 52" fill="none" xmlns="http://www.w3.org/2000/svg">
<rect x="0.974564" y="0.101562" width="50.9619" height="50.9619" rx="25.4809" fill="#FF9900"/>
<path fill-rule="evenodd" clip-rule="evenodd" d="M37.7804 25.5827C37.7804 31.8372 32.7101 36.9075 26.4555 36.9075C20.201 36.9075 15.1306 31.8372 15.1306 25.5827C15.1306 19.3281 20.201 14.2578 26.4555 14.2578C32.7101 14.2578 37.7804 19.3281 37.7804 25.5827ZM26.4234 24.9459C25.5391 24.9288 24.8276 24.2066 24.8276 23.3183C24.8276 22.4192 25.5564 21.6903 26.4555 21.6903C27.3546 21.6903 28.0835 22.4192 28.0835 23.3183C28.0835 23.6701 28.3687 23.9553 28.7205 23.9553C29.0723 23.9553 29.3575 23.6701 29.3575 23.3183C29.3575 21.9344 28.3888 20.7767 27.0925 20.4864V19.354C27.0925 19.0022 26.8073 18.717 26.4555 18.717C26.1037 18.717 25.8185 19.0022 25.8185 19.354V20.4864C24.5222 20.7767 23.5535 21.9344 23.5535 23.3183C23.5535 24.921 24.8528 26.2202 26.4555 26.2202C26.4663 26.2202 26.477 26.22 26.4876 26.2195C27.3719 26.2366 28.0835 26.9587 28.0835 27.8471C28.0835 28.7462 27.3546 29.475 26.4555 29.475C25.5564 29.475 24.8276 28.7462 24.8276 27.8471C24.8276 27.4953 24.5423 27.2101 24.1905 27.2101C23.8387 27.2101 23.5535 27.4953 23.5535 27.8471C23.5535 29.231 24.5222 30.3886 25.8185 30.6789V31.8108C25.8185 32.1626 26.1037 32.4478 26.4555 32.4478C26.8073 32.4478 27.0925 32.1626 27.0925 31.8108V30.6789C28.3888 30.3886 29.3575 29.231 29.3575 27.8471C29.3575 26.2444 28.0582 24.9451 26.4555 24.9451C26.4447 24.9451 26.434 24.9454 26.4234 24.9459Z" fill="#000214"/>
</svg>
