<svg width="20" height="20" viewBox="0 0 20 20" fill="none" xmlns="http://www.w3.org/2000/svg">
<path d="M4.74979 1V3.25M15.2498 1V3.25M0.999786 16.75V5.5C0.999786 4.90326 1.23684 4.33097 1.6588 3.90901C2.08075 3.48705 2.65305 3.25 3.24979 3.25H16.7498C17.3465 3.25 17.9188 3.48705 18.3408 3.90901C18.7627 4.33097 18.9998 4.90326 18.9998 5.5V16.75M0.999786 16.75C0.999786 17.3467 1.23684 17.919 1.6588 18.341C2.08075 18.7629 2.65305 19 3.24979 19H16.7498C17.3465 19 17.9188 18.7629 18.3408 18.341C18.7627 17.919 18.9998 17.3467 18.9998 16.75M0.999786 16.75V9.25C0.999786 8.65326 1.23684 8.08097 1.6588 7.65901C2.08075 7.23705 2.65305 7 3.24979 7H16.7498C17.3465 7 17.9188 7.23705 18.3408 7.65901C18.7627 8.08097 18.9998 8.65326 18.9998 9.25V16.75M9.99979 10.75H10.0078V10.758H9.99979V10.75ZM9.99979 13H10.0078V13.008H9.99979V13ZM9.99979 15.25H10.0078V15.258H9.99979V15.25ZM7.74979 13H7.75779V13.008H7.74979V13ZM7.74979 15.25H7.75779V15.258H7.74979V15.25ZM5.49979 13H5.50779V13.008H5.49979V13ZM5.49979 15.25H5.50779V15.258H5.49979V15.25ZM12.2498 10.75H12.2578V10.758H12.2498V10.75ZM12.2498 13H12.2578V13.008H12.2498V13ZM12.2498 15.25H12.2578V15.258H12.2498V15.25ZM14.4998 10.75H14.5078V10.758H14.4998V10.75ZM14.4998 13H14.5078V13.008H14.4998V13Z" stroke="#FF9900" stroke-opacity="0.5" stroke-width="1.5" stroke-linecap="round" stroke-linejoin="round"/>
</svg>
