<svg width="25" height="25" viewBox="0 0 25 25" fill="none" xmlns="http://www.w3.org/2000/svg">
<g clip-path="url(#clip0_106_4753)">
<path fill-rule="evenodd" clip-rule="evenodd" d="M12.1426 24.125C18.77 24.125 24.1426 18.7524 24.1426 12.125C24.1426 5.49759 18.77 0.125 12.1426 0.125C5.51517 0.125 0.142578 5.49759 0.142578 12.125C0.142578 18.7524 5.51517 24.125 12.1426 24.125ZM13.9101 7.0857C14.8534 7.24923 15.7556 7.53481 16.5969 7.92241C16.6042 7.92555 16.6104 7.93081 16.6141 7.93818C18.1048 10.1396 18.841 12.6229 18.5657 15.4817C18.5647 15.4938 18.5584 15.5049 18.5486 15.5122C17.4195 16.3447 16.3258 16.8501 15.2473 17.1851C15.2301 17.1904 15.2114 17.1841 15.201 17.1693C14.9518 16.8212 14.7254 16.4541 14.5272 16.0686C14.5157 16.046 14.5262 16.0187 14.5496 16.0097C14.9091 15.8735 15.2509 15.7105 15.5798 15.5175C15.6058 15.5022 15.6073 15.4649 15.5834 15.447C15.5137 15.395 15.4445 15.3403 15.3784 15.2856C15.3659 15.2756 15.3493 15.2735 15.3352 15.2803C13.2004 16.2706 10.8617 16.2706 8.70141 15.2803C8.68737 15.274 8.67071 15.2761 8.65876 15.2861C8.59269 15.3408 8.52347 15.395 8.45426 15.447C8.43033 15.4649 8.43242 15.5022 8.45843 15.5175C8.78726 15.7068 9.12909 15.8735 9.48811 16.0103C9.51151 16.0192 9.52245 16.046 9.51098 16.0686C9.31694 16.4546 9.09059 16.8217 8.8367 17.1699C8.82575 17.1841 8.80756 17.1904 8.79038 17.1851C7.71703 16.8501 6.62335 16.3447 5.49429 15.5122C5.48493 15.5049 5.47816 15.4933 5.47713 15.4812C5.24716 13.0084 5.71595 10.5046 7.4272 7.93765C7.43135 7.93081 7.43759 7.92555 7.44489 7.92241C8.28674 7.53428 9.18892 7.24873 10.1317 7.0857C10.1489 7.08306 10.166 7.09095 10.1749 7.10619C10.2914 7.31341 10.4246 7.57899 10.5147 7.79617C11.5084 7.64367 12.5178 7.64367 13.5324 7.79617C13.6224 7.58372 13.7509 7.31341 13.8669 7.10619C13.8758 7.09042 13.8929 7.08253 13.9101 7.0857ZM8.64729 12.6398C8.64729 13.376 9.18321 13.9755 9.83359 13.9755C10.4944 13.9755 11.0199 13.376 11.0199 12.6398C11.0303 11.9087 10.4996 11.304 9.83359 11.304C9.17282 11.304 8.64729 11.9035 8.64729 12.6398ZM13.0334 12.6398C13.0334 13.376 13.5693 13.9755 14.2197 13.9755C14.8857 13.9755 15.406 13.376 15.406 12.6398C15.4164 11.9087 14.8857 11.304 14.2197 11.304C13.5589 11.304 13.0334 11.9035 13.0334 12.6398Z" fill="#FF9900"/>
</g>
<defs>
<clipPath id="clip0_106_4753">
<rect width="24" height="24" fill="white" transform="translate(0.142578 0.125)"/>
</clipPath>
</defs>
</svg>
