<svg width="52" height="52" viewBox="0 0 52 52" fill="none" xmlns="http://www.w3.org/2000/svg">
<rect x="0.266632" y="0.101562" width="50.9619" height="50.9619" rx="25.4809" fill="#FF9900"/>
<path fill-rule="evenodd" clip-rule="evenodd" d="M27.4404 14.3834C32.3397 15.1177 36.2125 18.9905 36.9468 23.8898C37.0858 24.8176 36.3119 25.5826 35.3737 25.5826H27.4463C26.5081 25.5826 25.7476 24.8221 25.7476 23.8839V15.9565C25.7476 15.0183 26.5126 14.2444 27.4404 14.3834ZM14.4227 26.7167C14.4227 21.2776 18.6832 16.8336 24.0489 16.5398V23.3187C24.0489 25.5078 25.8235 27.2824 28.0126 27.2824H34.792C34.4985 32.6484 30.0544 36.9091 24.6151 36.9091C18.986 36.9091 14.4227 32.3458 14.4227 26.7167Z" fill="#28303F"/>
</svg>
