<svg width="150" height="51" viewBox="0 0 150 51" fill="none" xmlns="http://www.w3.org/2000/svg">
<path opacity="0.1" d="M29.218 25.4608C17.7725 25.4608 17.7725 19.5956 6.32696 19.5956H2V49H148V45.4025H143.673C132.228 45.4025 132.228 14.9034 120.782 14.9034C109.337 14.9034 109.337 31.326 97.891 31.326C86.4455 31.326 86.4455 7.8652 75 7.8652C63.5545 7.8652 63.5545 2 52.109 2C40.6635 2 40.6635 25.4608 29.218 25.4608Z" fill="url(#paint0_linear_106_4841)" stroke="#FF9900" stroke-width="3.29541"/>
<path opacity="0.75" d="M148 45.7209H143.673C132.228 45.7209 132.228 14.9981 120.782 14.9981C109.337 14.9981 109.337 31.5412 97.891 31.5412C86.4455 31.5412 86.4455 7.90823 75 7.90823C63.5545 7.90823 63.5545 2 52.109 2C40.6635 2 40.6635 25.6329 29.218 25.6329C17.7725 25.6329 17.7725 19.7247 6.32696 19.7247H2" stroke="#FF9900" stroke-width="1.23578"/>
<defs>
<linearGradient id="paint0_linear_106_4841" x1="75" y1="45.0543" x2="78.0584" y2="-29.3236" gradientUnits="userSpaceOnUse">
<stop stop-color="#0E293B" stop-opacity="0"/>
<stop offset="0.571573" stop-color="#0E293B" stop-opacity="0.9"/>
<stop offset="1" stop-color="#0E293B"/>
</linearGradient>
</defs>
</svg>
