<svg width="18" height="18" viewBox="0 0 18 18" fill="none" xmlns="http://www.w3.org/2000/svg">
<path fill-rule="evenodd" clip-rule="evenodd" d="M17.5405 9.09288C17.5405 13.7814 13.7397 17.5822 9.05113 17.5822C4.36258 17.5822 0.561768 13.7814 0.561768 9.09288C0.561768 4.40433 4.36258 0.603516 9.05113 0.603516C13.7397 0.603516 17.5405 4.40433 17.5405 9.09288ZM9.90007 4.8482C9.90007 5.31705 9.51998 5.69713 9.05113 5.69713C8.58228 5.69713 8.20219 5.31705 8.20219 4.8482C8.20219 4.37934 8.58228 3.99926 9.05113 3.99926C9.51998 3.99926 9.90007 4.37934 9.90007 4.8482ZM8.20219 6.7583C7.85055 6.7583 7.56549 7.04336 7.56549 7.39501C7.56549 7.74665 7.85055 8.03171 8.20219 8.03171H8.41443V13.3376C8.41443 13.6892 8.69949 13.9743 9.05113 13.9743C9.40277 13.9743 9.68783 13.6892 9.68783 13.3376V7.39501C9.68783 7.04336 9.40277 6.7583 9.05113 6.7583H8.20219Z" fill="#FF9900"/>
</svg>
