<svg width="25" height="25" viewBox="0 0 25 25" fill="none" xmlns="http://www.w3.org/2000/svg">
<g clip-path="url(#clip0_106_4755)">
<path fill-rule="evenodd" clip-rule="evenodd" d="M12.1426 24.125C18.77 24.125 24.1426 18.7524 24.1426 12.125C24.1426 5.49759 18.77 0.125 12.1426 0.125C5.51517 0.125 0.142578 5.49759 0.142578 12.125C0.142578 18.7524 5.51517 24.125 12.1426 24.125ZM6.14258 9.57903C6.14258 7.67439 7.69216 6.125 9.59661 6.125H14.6885C16.5932 6.125 18.1426 7.67458 18.1426 9.57903V14.7177C18.1426 16.6221 16.5932 18.1717 14.6885 18.1717H9.59661C7.69197 18.1717 6.14258 16.6221 6.14258 14.7177V9.57903ZM14.6885 17.0286C15.9628 17.0286 16.9995 15.9919 16.9995 14.7177V9.57903C16.9995 8.30482 15.9628 7.2681 14.6885 7.2681H9.59661C8.3224 7.2681 7.28567 8.30482 7.28567 9.57903V14.7177C7.28567 15.9919 8.3224 17.0286 9.59661 17.0286H14.6885ZM9.01977 12.1263C9.01977 10.4173 10.4251 9.02713 12.1521 9.02713C13.8791 9.02713 15.2844 10.4173 15.2844 12.1263C15.2844 13.835 13.8791 15.2252 12.1521 15.2252C10.4249 15.2252 9.01977 13.835 9.01977 12.1263ZM10.1607 12.1263C10.1607 13.2058 11.054 14.0843 12.1521 14.0843C13.2502 14.0843 14.1435 13.206 14.1435 12.1263C14.1435 11.0466 13.2501 10.1683 12.1521 10.1683C11.054 10.1683 10.1607 11.0466 10.1607 12.1263ZM15.3405 9.63752C15.7476 9.63752 16.0775 9.30754 16.0775 8.9005C16.0775 8.49349 15.7476 8.16351 15.3405 8.16351C14.9335 8.16351 14.6035 8.49349 14.6035 8.9005C14.6035 9.30754 14.9335 9.63752 15.3405 9.63752Z" fill="#FF9900"/>
</g>
<defs>
<clipPath id="clip0_106_4755">
<rect width="24" height="24" fill="white" transform="translate(0.142578 0.125)"/>
</clipPath>
</defs>
</svg>
