<svg width="24" height="24" viewBox="0 0 24 24" fill="none" xmlns="http://www.w3.org/2000/svg">
<path d="M18.5188 10.5886H18.0034V7.41211C18.0034 4.12272 15.3423 1.41211 12.0034 1.41211C8.68579 1.41211 6.00345 4.10152 6.00345 7.41211V10.5886H5.4811C4.70465 10.5886 4.06934 11.2239 4.06934 12.0003V14.6545C4.06934 19.038 7.61994 22.5886 12.0034 22.5886C16.3799 22.5886 19.9305 19.038 19.9305 14.6545V12.0003C19.9305 11.2239 19.3023 10.5886 18.5188 10.5886ZM12.7093 16.9062V18.8192C12.7093 19.2074 12.3917 19.5251 12.0034 19.5251C11.6082 19.5251 11.2976 19.2074 11.2976 18.8192V16.9062C10.6764 16.6309 10.2387 16.0098 10.2387 15.2898C10.2387 14.3157 11.0293 13.5251 12.0034 13.5251C12.9776 13.5251 13.7682 14.3157 13.7682 15.2898C13.7682 16.0098 13.3305 16.6309 12.7093 16.9062ZM15.1799 10.5886H8.82698V7.41211C8.82698 5.65447 10.2458 4.23564 12.0034 4.23564C13.7964 4.23564 15.1799 5.69682 15.1799 7.41211V10.5886Z" fill="#BBBFDC"/>
</svg>
