<svg width="31" height="33" viewBox="0 0 31 33" fill="none" xmlns="http://www.w3.org/2000/svg">
<path d="M1.40357 1.49408C1.0499 1.85506 0.845215 2.41707 0.845215 3.14489V29.1059C0.845215 29.8337 1.0499 30.3957 1.40357 30.7567L1.49086 30.8359L16.4115 16.2941V15.9508L1.49086 1.40897L1.40357 1.49408Z" fill="white"/>
<path d="M23.1854 21.1436L18.2174 16.2938V15.9505L23.1915 11.1008L23.3028 11.1639L29.1934 14.4317C30.8745 15.3591 30.8745 16.8852 29.1934 17.8185L23.3028 21.0805L23.1854 21.1436Z" fill="white"/>
<path d="M22.4003 21.9838L17.3148 17.0255L2.30687 31.6598C2.86523 32.232 3.77576 32.301 4.81121 31.7287L22.4003 21.9838Z" fill="white"/>
<path d="M22.4003 10.2614L4.81121 0.516522C3.77576 -0.0498891 2.86523 0.0190771 2.30687 0.591357L17.3148 15.2197L22.4003 10.2614Z" fill="white"/>
</svg>
