<svg width="52" height="52" viewBox="0 0 52 52" fill="none" xmlns="http://www.w3.org/2000/svg">
<rect x="0.558716" y="0.556641" width="50.9619" height="50.9619" rx="25.4809" fill="#FF9900"/>
<path fill-rule="evenodd" clip-rule="evenodd" d="M26.0396 14.7129H32.8346C34.7357 14.7129 36.3632 15.884 37.0352 17.5441H21.839C22.511 15.884 24.1386 14.7129 26.0396 14.7129ZM14.7148 26.0383L14.7148 30.5682H19.2447C20.4956 30.5682 21.5097 29.5542 21.5097 28.3033C21.5097 27.0524 20.4956 26.0383 19.2447 26.0383H14.7148ZM37.3645 19.2434H18.1122C16.2359 19.2434 14.7148 20.7645 14.7148 22.6408V24.3396L19.2447 24.3396C21.4338 24.3396 23.2084 26.1142 23.2084 28.3033C23.2084 30.4924 21.4338 32.267 19.2447 32.267H14.7148V33.9657C14.7148 35.8421 16.2359 37.3632 18.1122 37.3632H33.967C35.8434 37.3632 37.3645 35.8421 37.3645 33.9657V19.2434Z" fill="#28303F"/>
</svg>
