<svg width="25" height="25" viewBox="0 0 25 25" fill="none" xmlns="http://www.w3.org/2000/svg">
<g clip-path="url(#clip0_106_4754)">
<path fill-rule="evenodd" clip-rule="evenodd" d="M12.1426 24.125C18.77 24.125 24.1426 18.7524 24.1426 12.125C24.1426 5.49759 18.77 0.125 12.1426 0.125C5.51517 0.125 0.142578 5.49759 0.142578 12.125C0.142578 18.7524 5.51517 24.125 12.1426 24.125ZM13.4614 6.12831C13.0881 6.12882 12.7142 6.12932 12.3391 6.13513L12.3395 6.13551C12.3296 7.42443 12.3302 8.71366 12.3309 10.0045C12.3312 10.726 12.3316 11.448 12.3301 12.1707C12.3285 12.413 12.3287 12.6551 12.329 12.897C12.3296 13.548 12.3303 14.1981 12.2945 14.8502C12.2893 15.0312 12.1985 15.1903 12.1103 15.3448C12.1033 15.3571 12.0963 15.3693 12.0893 15.3816C11.7983 15.856 11.2632 16.18 10.7048 16.186C9.86246 16.2607 9.07341 15.571 8.95454 14.7505C8.95365 14.7103 8.95221 14.6698 8.95079 14.6292C8.94266 14.3977 8.93435 14.1617 9.02241 13.946C9.14767 13.5905 9.38805 13.2763 9.70459 13.0711C10.1381 12.77 10.7179 12.725 11.214 12.8855C11.214 12.5692 11.2194 12.253 11.2248 11.9369C11.2321 11.5127 11.2393 11.0886 11.2335 10.6642C10.1475 10.461 8.98754 10.8045 8.15949 11.5257C7.42895 12.1448 6.95831 13.055 6.86829 14.0064C6.85819 14.2506 6.86229 14.5003 6.87429 14.7505C6.9778 15.9205 7.68847 17.0107 8.69841 17.6062C9.30779 17.9655 10.0222 18.1605 10.7374 18.1196C11.9033 18.1001 13.0385 17.475 13.6925 16.5161C14.0991 15.94 14.3297 15.2444 14.3687 14.5453C14.3788 13.5851 14.3782 12.623 14.3776 11.6598C14.3773 11.1635 14.3769 10.6668 14.3781 10.17C14.638 10.3399 14.9035 10.506 15.1885 10.635C15.8429 10.9455 16.5674 11.0955 17.2886 11.1191V9.10566C16.5191 9.01978 15.7282 8.76589 15.169 8.21122C14.6087 7.67007 14.3334 6.89041 14.2941 6.125C14.0167 6.12757 13.7392 6.12793 13.4614 6.12831Z" fill="#FF9900"/>
</g>
<defs>
<clipPath id="clip0_106_4754">
<rect width="24" height="24" fill="white" transform="translate(0.142578 0.125)"/>
</clipPath>
</defs>
</svg>
