<svg width="41" height="42" viewBox="0 0 41 42" fill="none" xmlns="http://www.w3.org/2000/svg">
<rect x="0.259583" y="0.957031" width="40.7489" height="40.7489" rx="20.3745" fill="#FF9900"/>
<path fill-rule="evenodd" clip-rule="evenodd" d="M29.0638 16.4504C28.7658 14.8794 27.3855 13.6914 25.7277 13.6914H15.5404C13.8826 13.6914 12.5023 14.8794 12.2043 16.4504L29.0638 16.4504ZM29.1234 17.7239V19.8462H12.1447V17.7239H29.1234ZM12.1447 21.1196L29.1234 21.1196V23.0297C29.1234 23.4986 28.7433 23.8786 28.2745 23.8786H25.7277C23.8522 23.8786 22.3319 25.399 22.3319 27.2744V28.1233C22.3319 28.5922 21.9518 28.9723 21.483 28.9723L15.5404 28.9723C13.665 28.9723 12.1447 27.4519 12.1447 25.5765V21.1196ZM16.3894 25.5764C16.3894 26.0453 16.0093 26.4254 15.5404 26.4254C15.0716 26.4254 14.6915 26.0453 14.6915 25.5764C14.6915 25.1076 15.0716 24.7275 15.5404 24.7275C16.0093 24.7275 16.3894 25.1076 16.3894 25.5764ZM25.3289 27.3729L25.9399 26.7619V28.9722C25.9399 29.3238 26.225 29.6089 26.5766 29.6089C26.9282 29.6089 27.2133 29.3238 27.2133 28.9722V26.7619L27.8243 27.3729C28.0729 27.6215 28.476 27.6215 28.7247 27.3729C28.9733 27.1242 28.9733 26.7211 28.7247 26.4725L27.6271 25.3749C27.0469 24.7947 26.1063 24.7947 25.5261 25.3749L24.4285 26.4725C24.1799 26.7211 24.1799 27.1242 24.4285 27.3729C24.6772 27.6215 25.0803 27.6215 25.3289 27.3729Z" fill="#000214"/>
</svg>
