<svg width="41" height="42" viewBox="0 0 41 42" fill="none" xmlns="http://www.w3.org/2000/svg">
<rect x="0.259583" y="0.722656" width="40.7489" height="40.7489" rx="20.3745" fill="#FF9900"/>
<path fill-rule="evenodd" clip-rule="evenodd" d="M29.0638 16.2161C28.7658 14.645 27.3855 13.457 25.7277 13.457H15.5404C13.8826 13.457 12.5023 14.645 12.2043 16.2161L29.0638 16.2161ZM29.1234 17.4895V19.6118H12.1447V17.4895H29.1234ZM12.1447 20.8852L29.1234 20.8852V22.7953C29.1234 23.2642 28.7433 23.6443 28.2745 23.6443H25.7277C23.8522 23.6443 22.3319 25.1646 22.3319 27.04V27.8889C22.3319 28.3578 21.9518 28.7379 21.483 28.7379L15.5404 28.7379C13.665 28.7379 12.1447 27.2176 12.1447 25.3421V20.8852ZM16.3894 25.3421C16.3894 25.8109 16.0093 26.191 15.5404 26.191C15.0716 26.191 14.6915 25.8109 14.6915 25.3421C14.6915 24.8732 15.0716 24.4931 15.5404 24.4931C16.0093 24.4931 16.3894 24.8732 16.3894 25.3421ZM25.3289 26.9414L25.9399 27.5523V25.3421C25.9399 24.9904 26.225 24.7054 26.5766 24.7054C26.9282 24.7054 27.2133 24.9904 27.2133 25.3421V27.5523L27.8243 26.9414C28.0729 26.6927 28.476 26.6927 28.7247 26.9414C28.9733 27.19 28.9733 27.5932 28.7247 27.8418L27.6271 28.9394C27.0469 29.5196 26.1063 29.5196 25.5261 28.9394L24.4285 27.8418C24.1799 27.5932 24.1799 27.19 24.4285 26.9414C24.6772 26.6927 25.0803 26.6927 25.3289 26.9414Z" fill="#000214"/>
</svg>
