<svg width="52" height="52" viewBox="0 0 52 52" fill="none" xmlns="http://www.w3.org/2000/svg">
<rect x="0.266632" y="0.556641" width="50.9619" height="50.9619" rx="25.4809" fill="#FF9900"/>
<path fill-rule="evenodd" clip-rule="evenodd" d="M17.8202 16.9766C15.9438 16.9766 14.4227 18.4977 14.4227 20.374V31.6989C14.4227 33.5752 15.9438 35.0963 17.8202 35.0963H33.675C35.5514 35.0963 37.0724 33.5752 37.0724 31.6989V20.374C37.0724 18.4977 35.5514 16.9766 33.675 16.9766H17.8202ZM32.5425 29.4345C33.168 29.4345 33.675 29.9415 33.675 30.5669C33.675 31.1924 33.168 31.6994 32.5425 31.6994C31.9171 31.6994 31.41 31.1924 31.41 30.5669C31.41 29.9415 31.9171 29.4345 32.5425 29.4345ZM20.0852 21.506C20.0852 20.8805 19.5781 20.3735 18.9527 20.3735C18.3272 20.3735 17.8202 20.8805 17.8202 21.506C17.8202 22.1314 18.3272 22.6384 18.9527 22.6384C19.5781 22.6384 20.0852 22.1314 20.0852 21.506ZM25.7476 23.772C26.9985 23.772 28.0126 24.7861 28.0126 26.037C28.0126 27.2879 26.9985 28.302 25.7476 28.302C24.4967 28.302 23.4826 27.2879 23.4826 26.037C23.4826 24.7861 24.4967 23.772 25.7476 23.772Z" fill="#28303F"/>
</svg>
