<svg width="52" height="52" viewBox="0 0 52 52" fill="none" xmlns="http://www.w3.org/2000/svg">
<rect x="0.974564" y="0.556641" width="50.9619" height="50.9619" rx="25.4809" fill="#FF9900"/>
<path fill-rule="evenodd" clip-rule="evenodd" d="M33.2504 15.8457H19.6606C17.1588 15.8457 15.1306 17.8738 15.1306 20.3756C15.1306 22.2767 16.3017 23.9043 17.9619 24.5763V20.3756C17.9619 19.9251 18.1408 19.493 18.4594 19.1745C18.778 18.8559 19.2101 18.6769 19.6606 18.6769H33.2504C33.701 18.6769 34.133 18.8559 34.4516 19.1745C34.7702 19.493 34.9492 19.9251 34.9492 20.3756V24.5763C36.6093 23.9043 37.7804 22.2767 37.7804 20.3756C37.7804 17.8738 35.7522 15.8457 33.2504 15.8457ZM33.2504 33.966L33.2504 20.3762H19.6606V33.966C19.6606 35.2169 20.6747 36.231 21.9256 36.231H30.9854C32.2364 36.231 33.2504 35.2169 33.2504 33.966ZM27.0925 25.9757L28.27 27.1532C28.5188 27.402 28.9221 27.402 29.1709 27.1532C29.4197 26.9045 29.4197 26.5011 29.1709 26.2524L27.7067 24.7882C27.0157 24.0971 25.8953 24.0971 25.2043 24.7882L23.7401 26.2524C23.4913 26.5011 23.4913 26.9045 23.7401 27.1532C23.9889 27.402 24.3922 27.402 24.641 27.1532L25.8185 25.9757V31.2327C25.8185 31.5846 26.1037 31.8698 26.4555 31.8698C26.8073 31.8698 27.0925 31.5846 27.0925 31.2327V25.9757Z" fill="#28303F"/>
</svg>
