<svg width="25" height="25" viewBox="0 0 25 25" fill="none" xmlns="http://www.w3.org/2000/svg">
<rect x="0.142578" y="0.125" width="24" height="24" rx="12" fill="#FF9900"/>
<path d="M13.0936 11.3593L16.8161 7.125H15.9338L12.7025 10.8014L10.1203 7.125H7.14258L11.0467 12.685L7.14258 17.125H8.02487L11.4379 13.2421L14.1649 17.125H17.1426L13.0936 11.3593ZM11.8856 12.7336L11.4901 12.18L8.34249 7.775H9.69754L12.2371 11.33L12.6326 11.8836L15.9346 16.505H14.5795L11.8856 12.7336Z" fill="#1C1D1D"/>
<path d="M11.8856 12.7336L11.4901 12.18L8.34249 7.775H9.69754L12.2371 11.33L12.6326 11.8836L15.9346 16.505H14.5795L11.8856 12.7336Z" fill="#1C1D1D"/>
</svg>
