<svg width="25" height="25" viewBox="0 0 25 25" fill="none" xmlns="http://www.w3.org/2000/svg">
<g clip-path="url(#clip0_106_4751)">
<path fill-rule="evenodd" clip-rule="evenodd" d="M12.1426 24.125C18.77 24.125 24.1426 18.7524 24.1426 12.125C24.1426 5.49759 18.77 0.125 12.1426 0.125C5.51517 0.125 0.142578 5.49759 0.142578 12.125C0.142578 18.7524 5.51517 24.125 12.1426 24.125ZM16.4384 7.95514C17.3596 8.03838 17.8786 8.60192 17.9924 9.50036C18.072 10.1271 18.1426 11.0249 18.1426 11.9903C18.1426 13.6856 17.9924 14.6658 17.9924 14.6658C17.8511 15.5606 17.4186 16.0465 16.5089 16.1493C15.4926 16.2642 13.2069 16.3171 12.1912 16.3171C11.14 16.3171 9.01406 16.273 7.9528 16.1846C7.04059 16.1086 6.41812 15.5991 6.29272 14.6923C6.20152 14.0319 6.14258 13.247 6.14258 11.9991C6.14258 10.6098 6.19269 10.022 6.31036 9.39433C6.47834 8.49867 6.90573 8.06482 7.88203 7.96395C8.90651 7.85792 9.87465 7.805 12.0411 7.805C13.1002 7.805 15.3836 7.85984 16.4384 7.95514ZM10.8666 10.2979V13.7476L14.1513 12.0051L10.8666 10.2979Z" fill="#FF9900"/>
</g>
<defs>
<clipPath id="clip0_106_4751">
<rect width="24" height="24" fill="white" transform="translate(0.142578 0.125)"/>
</clipPath>
</defs>
</svg>
