<svg width="60" height="60" viewBox="0 0 60 60" fill="none" xmlns="http://www.w3.org/2000/svg">
<rect width="60" height="60" rx="30" fill="#48CAE4"/>
<path fill-rule="evenodd" clip-rule="evenodd" d="M30.0003 28.667C32.2095 28.667 34.0003 26.8761 34.0003 24.667C34.0003 22.4579 32.2095 20.667 30.0003 20.667C27.7912 20.667 26.0003 22.4579 26.0003 24.667C26.0003 26.8761 27.7912 28.667 30.0003 28.667ZM30.0003 39.3337C34.4186 39.3337 38.0003 37.5428 38.0003 35.3337C38.0003 33.1245 34.4186 31.3337 30.0003 31.3337C25.582 31.3337 22.0003 33.1245 22.0003 35.3337C22.0003 37.5428 25.582 39.3337 30.0003 39.3337ZM22.5092 31.3591C19.2163 31.5621 16.667 32.9658 16.667 34.6671C16.667 36.0698 18.3996 37.2701 20.8532 37.7621C20.3049 37.0197 20.0003 36.1981 20.0003 35.3338C20.0003 33.8092 20.948 32.4175 22.5092 31.3591ZM40.0004 35.3338C40.0004 36.1981 39.6958 37.0197 39.1476 37.7621C41.6011 37.2701 43.3337 36.0698 43.3337 34.6671C43.3337 32.9658 40.7844 31.5621 37.4915 31.3591C39.0527 32.4175 40.0004 33.8092 40.0004 35.3338ZM34.958 28.0475C35.6157 27.0849 36.0003 25.9208 36.0003 24.667C36.0003 24.2509 35.9579 23.8447 35.8773 23.4525C36.1268 23.3753 36.392 23.3337 36.667 23.3337C38.1397 23.3337 39.3336 24.5276 39.3336 26.0003C39.3336 27.4731 38.1397 28.667 36.667 28.667C36.0167 28.667 35.4208 28.4342 34.958 28.0475ZM23.3337 23.3337C23.6086 23.3337 23.8738 23.3753 24.1233 23.4525C24.0427 23.8447 24.0003 24.2509 24.0003 24.667C24.0003 25.9208 24.3849 27.0849 25.0426 28.0475C24.5798 28.4342 23.9839 28.667 23.3337 28.667C21.8609 28.667 20.667 27.4731 20.667 26.0003C20.667 24.5276 21.8609 23.3337 23.3337 23.3337Z" fill="#0E293B"/>
</svg>
