<svg width="20" height="20" viewBox="0 0 20 20" fill="none" xmlns="http://www.w3.org/2000/svg">
<path d="M4.43411 8.06976C6.4455 4.51064 7.4512 2.73108 8.83123 2.27299C9.59044 2.02098 10.4083 2.02098 11.1675 2.27299C12.5475 2.73108 13.5532 4.51064 15.5646 8.06976C17.576 11.6289 18.5817 13.4084 18.28 14.8584C18.114 15.6561 17.7051 16.3797 17.1119 16.9254C16.0335 17.9173 14.0221 17.9173 9.99935 17.9173C5.97655 17.9173 3.96516 17.9173 2.88682 16.9254C2.29358 16.3797 1.88467 15.6561 1.7187 14.8584C1.41701 13.4084 2.42271 11.6289 4.43411 8.06976Z" stroke="#F74418" stroke-width="1.25"/>
<path d="M9.993 13.334H10.0005" stroke="#F74418" stroke-width="1.66667" stroke-linecap="round" stroke-linejoin="round"/>
<path d="M9.99902 10.834L9.99902 7.50065" stroke="#F74418" stroke-width="1.25" stroke-linecap="round" stroke-linejoin="round"/>
</svg>
