<svg width="60" height="60" viewBox="0 0 60 60" fill="none" xmlns="http://www.w3.org/2000/svg">
<rect width="60" height="60" rx="30" fill="#EDA680"/>
<path fill-rule="evenodd" clip-rule="evenodd" d="M32.6667 23.3333C32.6667 26.2789 30.2789 28.6667 27.3333 28.6667C24.3878 28.6667 22 26.2789 22 23.3333C22 20.3878 24.3878 18 27.3333 18C30.2789 18 32.6667 20.3878 32.6667 23.3333ZM36.6667 36.6667C36.6667 39.6122 32.488 42 27.3333 42C22.1787 42 18 39.6122 18 36.6667C18 33.7211 22.1787 31.3333 27.3333 31.3333C32.488 31.3333 36.6667 33.7211 36.6667 36.6667ZM35.968 30.7795L41.4462 25.3014C41.7981 25.8969 42 26.5915 42 27.3333C42 29.5425 40.2091 31.3333 38 31.3333C37.2582 31.3333 36.5635 31.1314 35.968 30.7795ZM34 27.3333C34 28.0751 34.2019 28.7698 34.5538 29.3653L40.032 23.8872C39.4365 23.5353 38.7418 23.3333 38 23.3333C35.7909 23.3333 34 25.1242 34 27.3333Z" fill="#0E293B"/>
</svg>
