<svg width="55" height="54" viewBox="0 0 55 54" fill="none" xmlns="http://www.w3.org/2000/svg">
<rect x="1" y="0.5" width="53" height="53" rx="26.5" fill="white"/>
<rect x="1" y="0.5" width="53" height="53" rx="26.5" stroke="#E3E5E7"/>
<path d="M32.5 22.5V19C32.5 17.8954 31.6046 17 30.5 17H24.5C23.3954 17 22.5 17.8954 22.5 19V22.5M35.5 29C35.5 33.4183 31.9183 37 27.5 37C23.0817 37 19.5 33.4183 19.5 29C19.5 24.5817 23.0817 21 27.5 21C31.9183 21 35.5 24.5817 35.5 29ZM25.4961 27.1796L24.2523 27.3675C23.5325 27.4762 23.2451 28.3958 23.766 28.9236L24.666 29.8358C24.8728 30.0454 24.9672 30.3474 24.9184 30.6434L24.7059 31.9314C24.583 32.6767 25.3354 33.2451 25.9791 32.8932L27.0917 32.285C27.3473 32.1453 27.6527 32.1453 27.9083 32.285L29.0209 32.8932C29.6646 33.2451 30.417 32.6767 30.2941 31.9314L30.0816 30.6434C30.0328 30.3474 30.1272 30.0454 30.334 29.8358L31.2341 28.9236C31.7549 28.3958 31.4675 27.4762 30.7477 27.3675L29.5038 27.1796C29.218 27.1364 28.971 26.9497 28.8432 26.6805L28.2869 25.5086C27.965 24.8305 27.035 24.8305 26.7131 25.5086L26.1568 26.6805C26.029 26.9497 25.782 27.1364 25.4961 27.1796Z" stroke="#0E293B" stroke-width="1.5" stroke-linecap="round" stroke-linejoin="round"/>
</svg>
