<svg width="55" height="54" viewBox="0 0 55 54" fill="none" xmlns="http://www.w3.org/2000/svg">
<rect x="1" y="0.5" width="53" height="53" rx="26.5" fill="white"/>
<rect x="1" y="0.5" width="53" height="53" rx="26.5" stroke="#E3E5E7"/>
<path d="M18.5 33H17.75H18.5ZM18.5 21H19.25H18.5ZM22.5 17V16.25V17ZM32.5 17V16.25V17ZM36.5 21H35.75H36.5ZM36.5 27.3431H37.25H36.5ZM26.8431 37V36.25V37ZM22.5 37V37.75V37ZM35.3284 30.1716L34.7981 29.6412V29.6412L35.3284 30.1716ZM29.6716 35.8284L30.2019 36.3588L29.6716 35.8284ZM28.5 33H27.75H28.5ZM32.5 29V28.25V29ZM24.9685 22.4143C24.6451 22.1556 24.1731 22.208 23.9143 22.5315C23.6556 22.8549 23.708 23.3269 24.0315 23.5857L24.9685 22.4143ZM26.2528 24.4023L25.7843 24.9879L26.2528 24.4023ZM27.6301 24.2799L27.0657 23.786H27.0657L27.6301 24.2799ZM31.0644 21.4939C31.3372 21.1822 31.3056 20.7083 30.9939 20.4356C30.6822 20.1628 30.2083 20.1944 29.9356 20.5061L31.0644 21.4939ZM19.25 33L19.25 21H17.75L17.75 33H19.25ZM22.5 17.75L32.5 17.75V16.25L22.5 16.25V17.75ZM35.75 21V27.3431H37.25V21H35.75ZM26.8431 36.25H22.5V37.75H26.8431V36.25ZM34.7981 29.6412L29.1412 35.2981L30.2019 36.3588L35.8588 30.7019L34.7981 29.6412ZM26.8431 37.75C28.1029 37.75 29.3111 37.2496 30.2019 36.3588L29.1412 35.2981C28.5317 35.9076 27.7051 36.25 26.8431 36.25V37.75ZM35.75 27.3431C35.75 28.2051 35.4076 29.0318 34.7981 29.6412L35.8588 30.7019C36.7496 29.8111 37.25 28.6029 37.25 27.3431H35.75ZM19.25 21C19.25 19.2051 20.7051 17.75 22.5 17.75V16.25C19.8766 16.25 17.75 18.3766 17.75 21H19.25ZM17.75 33C17.75 35.6234 19.8766 37.75 22.5 37.75V36.25C20.7051 36.25 19.25 34.7949 19.25 33H17.75ZM32.5 17.75C34.2949 17.75 35.75 19.2051 35.75 21H37.25C37.25 18.3766 35.1234 16.25 32.5 16.25V17.75ZM29.25 37V33H27.75V37H29.25ZM32.5 29.75L36.5 29.75V28.25L32.5 28.25V29.75ZM29.25 33C29.25 31.2051 30.7051 29.75 32.5 29.75V28.25C29.8766 28.25 27.75 30.3766 27.75 33H29.25ZM24.0315 23.5857L25.7843 24.9879L26.7213 23.8166L24.9685 22.4143L24.0315 23.5857ZM28.1945 24.7738L31.0644 21.4939L29.9356 20.5061L27.0657 23.786L28.1945 24.7738ZM25.7843 24.9879C26.5156 25.5729 27.5778 25.4786 28.1945 24.7738L27.0657 23.786C26.9776 23.8867 26.8258 23.9002 26.7213 23.8166L25.7843 24.9879Z" fill="#0E293B"/>
</svg>
