<svg width="61" height="60" viewBox="0 0 61 60" fill="none" xmlns="http://www.w3.org/2000/svg">
<rect x="0.25" width="60" height="60" rx="30" fill="#EDA680"/>
<path fill-rule="evenodd" clip-rule="evenodd" d="M43.5827 30.0003C43.5827 37.3641 37.6131 43.3337 30.2493 43.3337C22.8856 43.3337 16.916 37.3641 16.916 30.0003C16.916 22.6365 22.8856 16.667 30.2493 16.667C37.6131 16.667 43.5827 22.6365 43.5827 30.0003ZM34.7277 34.4786C34.3372 34.8691 33.704 34.8691 33.3135 34.4786L30.2494 31.4145L27.1852 34.4786C26.7947 34.8691 26.1615 34.8691 25.771 34.4786C25.3805 34.0881 25.3805 33.4549 25.771 33.0644L28.8351 30.0002L25.771 26.9361C25.3805 26.5456 25.3805 25.9124 25.771 25.5219C26.1615 25.1314 26.7947 25.1314 27.1852 25.5219L30.2494 28.586L33.3135 25.5219C33.704 25.1314 34.3372 25.1314 34.7277 25.5219C35.1182 25.9124 35.1182 26.5456 34.7277 26.9361L31.6636 30.0002L34.7277 33.0644C35.1182 33.4549 35.1182 34.0881 34.7277 34.4786Z" fill="#0E293B"/>
</svg>
