<svg width="61" height="60" viewBox="0 0 61 60" fill="none" xmlns="http://www.w3.org/2000/svg">
<rect x="0.5" width="60" height="60" rx="30" fill="#80ED99"/>
<path fill-rule="evenodd" clip-rule="evenodd" d="M41.1665 29.4823V20.667C41.1665 18.4579 39.3756 16.667 37.1665 16.667H23.8332C21.624 16.667 19.8332 18.4579 19.8332 20.667V29.4823C20.262 29.385 20.7082 29.3337 21.1665 29.3337H22.4998C23.9687 29.3337 25.3519 30.0252 26.2332 31.2003L27.8332 33.3337C28.4627 34.173 29.4506 34.667 30.4998 34.667C31.549 34.667 32.537 34.173 33.1665 33.3337L34.7665 31.2003C35.6478 30.0252 37.031 29.3337 38.4998 29.3337H39.8332C40.2914 29.3337 40.7377 29.385 41.1665 29.4823ZM35.4998 24.667C35.4998 25.2193 35.0521 25.667 34.4998 25.667H26.4998C25.9476 25.667 25.4998 25.2193 25.4998 24.667C25.4998 24.1147 25.9476 23.667 26.4998 23.667H34.4998C35.0521 23.667 35.4998 24.1147 35.4998 24.667ZM43.8332 34.3337V40.3337C43.8332 41.9905 42.49 43.3337 40.8332 43.3337H20.1665C18.5096 43.3337 17.1665 41.9905 17.1665 40.3337V34.3337C17.1665 32.6768 18.5096 31.3337 20.1665 31.3337H22.8332C23.4627 31.3337 24.0555 31.63 24.4332 32.1337L26.6332 35.067C27.3886 36.0742 28.5741 36.667 29.8332 36.667H31.1665C32.4255 36.667 33.6111 36.0742 34.3665 35.067L36.5665 32.1337C36.9442 31.63 37.537 31.3337 38.1665 31.3337H40.8332C42.49 31.3337 43.8332 32.6768 43.8332 34.3337Z" fill="#0E293B"/>
</svg>
