<svg width="54" height="54" viewBox="0 0 54 54" fill="none" xmlns="http://www.w3.org/2000/svg">
<rect x="0.5" y="0.5" width="53" height="53" rx="26.5" fill="white"/>
<rect x="0.5" y="0.5" width="53" height="53" rx="26.5" stroke="#E3E5E7"/>
<path d="M33.301 33.9281L33.9215 33.5607C35.2077 32.799 36 31.3914 36 29.8681V24.1319C36 22.6086 35.2077 21.201 33.9215 20.4393L29.0785 17.5712C27.7923 16.8096 26.2077 16.8096 24.9215 17.5712L20.0785 20.4393C18.7923 21.201 18 22.6086 18 24.1319V29.8681C18 31.3914 18.7923 32.799 20.0785 33.5607L20.699 33.9281M33.301 33.9281L29.0785 36.4288C27.7923 37.1904 26.2077 37.1904 24.9215 36.4288L20.699 33.9281M33.301 33.9281C32.0431 31.6982 29.6924 30.1979 27 30.1979C24.3076 30.1979 21.9569 31.6982 20.699 33.9281" stroke="#0E293B" stroke-width="1.5" stroke-linejoin="round"/>
<circle cx="3" cy="3" r="3" transform="matrix(1 0 0 -1 24 27)" stroke="#0E293B" stroke-width="1.5" stroke-linejoin="round"/>
</svg>
