<svg width="20" height="20" viewBox="0 0 20 20" fill="none" xmlns="http://www.w3.org/2000/svg">
<path fill-rule="evenodd" clip-rule="evenodd" d="M1.875 14.1667C1.875 16.3528 3.64721 18.125 5.83333 18.125L14.1667 18.125C16.3528 18.125 18.125 16.3528 18.125 14.1667L18.125 10.8333C18.125 8.6472 16.3528 6.875 14.1667 6.875L13.75 6.875C13.4048 6.875 13.125 7.15482 13.125 7.5C13.125 7.84518 13.4048 8.125 13.75 8.125L14.1667 8.125C15.6624 8.125 16.875 9.33756 16.875 10.8333L16.875 14.1667C16.875 15.6624 15.6624 16.875 14.1667 16.875L5.83333 16.875C4.33756 16.875 3.125 15.6624 3.125 14.1667L3.125 10.8333C3.125 9.33756 4.33756 8.125 5.83333 8.125L6.25 8.125C6.59518 8.125 6.875 7.84518 6.875 7.5C6.875 7.15482 6.59518 6.875 6.25 6.875L5.83333 6.875C3.64721 6.875 1.875 8.64721 1.875 10.8333L1.875 14.1667ZM7.05806 10.4419C6.81398 10.1979 6.81398 9.80213 7.05806 9.55806C7.30214 9.31398 7.69787 9.31398 7.94194 9.55806L9.375 10.9911L9.375 2.5C9.375 2.15482 9.65482 1.875 10 1.875C10.3452 1.875 10.625 2.15482 10.625 2.5L10.625 10.9911L12.0581 9.55806C12.3021 9.31398 12.6979 9.31398 12.9419 9.55806C13.186 9.80213 13.186 10.1979 12.9419 10.4419L10.4419 12.9419C10.1979 13.186 9.80214 13.186 9.55806 12.9419L7.05806 10.4419Z" fill="#0E293B"/>
</svg>
