<svg width="61" height="60" viewBox="0 0 61 60" fill="none" xmlns="http://www.w3.org/2000/svg">
<rect x="0.75" width="60" height="60" rx="30" fill="#CCCEFD"/>
<path d="M41.9177 31.8494V29.9869C41.9177 23.8163 36.9027 18.8125 30.7177 18.8125C29.0351 18.8104 27.3738 19.1879 25.8573 19.9168C24.3408 20.6457 23.0083 21.7073 21.9589 23.0225M19.5508 28.1475V30.01C19.5508 36.1875 24.5633 41.1875 30.7508 41.1875C32.4285 41.1851 34.0846 40.8084 35.5983 40.0848C37.112 39.3613 38.4452 38.3091 39.5008 37.005" stroke="#0E293B" stroke-width="2" stroke-linecap="round" stroke-linejoin="round"/>
<path d="M16.75 30L19.5 27.25L22.375 30M44.75 30L42 32.75L39.125 30" stroke="#0E293B" stroke-width="2" stroke-linecap="round" stroke-linejoin="round"/>
</svg>
