<svg width="181" height="38" viewBox="0 0 181 38" fill="none" xmlns="http://www.w3.org/2000/svg">
<path d="M2.83789 0.770508L4.90977 6.88168H22.3205C22.9995 6.88168 23.4696 7.59551 23.1736 8.2223L21.7808 11.2344H30.4687L32.3143 6.429C33.3589 3.69551 31.3567 0.770508 28.4317 0.770508H2.83789Z" fill="url(#paint0_linear_2_2010)"/>
<path d="M5.22322 12.8887L0 25.1981H6.91206C8.06117 25.1981 9.10581 24.5016 9.55849 23.4396L11.404 18.9998H29.8072C30.4862 18.9998 30.9389 19.6963 30.6777 20.3231L28.6755 24.9543L12.8143 25.1981L7.7826 37.2289H14.5728C15.7915 37.2289 16.871 36.4628 17.2714 35.3137L18.6991 31.2396L28.0487 31.1525C32.1054 31.1177 35.7616 28.6976 37.3808 24.9891L40.1143 18.7213C41.3157 15.9704 39.296 12.9061 36.3014 12.9061H5.22322V12.8887Z" fill="url(#paint1_linear_2_2010)"/>
<path d="M59.1967 13.0293C60.8902 13.0293 61.9997 13.5257 62.788 14.314C63.6055 15.1315 64.1019 16.2994 64.1019 17.4965C64.1019 18.5476 63.7223 19.5695 63.0508 20.3578C62.2332 21.3213 61.007 21.9636 59.1675 21.9636H53.6785V24.9709H50.4668V13.7592C50.4668 13.2629 50.7296 13.0293 51.2551 13.0293H59.1967ZM59.2551 19.0147C59.9559 19.0147 60.3646 18.8103 60.6274 18.46C60.8026 18.2264 60.9194 17.9344 60.9194 17.6132C60.9194 17.2629 60.8026 16.9709 60.6274 16.7081C60.3646 16.387 59.9559 16.1826 59.2551 16.1826H53.9121C53.7661 16.1826 53.6785 16.241 53.6785 16.4162V19.0147H59.2551Z" fill="#0E293B"/>
<path d="M69.4744 24.9709H66.2627V13.7592C66.2627 13.2629 66.5255 13.0293 67.051 13.0293H75.5182C76.978 13.0293 77.9123 13.4673 78.5839 14.168C79.1678 14.7811 79.5474 15.6278 79.5474 16.5038C79.5474 17.4673 79.2554 18.3724 78.4087 18.9855C79.197 19.4527 79.5474 20.095 79.5474 21.4673V23.8614C79.5474 24.387 79.5766 24.6498 79.6058 25.0001H76.3649C76.3357 24.7373 76.3065 24.4746 76.3065 24.2118V21.8176C76.3065 21.0585 75.9269 20.7665 74.9926 20.7665H69.416V24.9709H69.4744ZM75.1386 17.9928C75.5766 17.9928 75.8394 17.8468 76.0437 17.6132C76.1897 17.4381 76.2773 17.2337 76.2773 17.0001C76.2773 16.7665 76.1897 16.5038 76.0145 16.3286C75.8393 16.1242 75.5474 16.0074 75.1386 16.0074H69.7372C69.562 16.0074 69.4744 16.1242 69.4744 16.2702V17.9928H75.1386Z" fill="#0E293B"/>
<path d="M87.9265 24.9708C85.7951 24.9708 84.2185 24.2409 83.109 23.0146C82.1455 21.9635 81.5615 20.5621 81.5615 18.9854C81.5615 17.2628 82.2915 15.6861 83.4885 14.5766C84.5396 13.6131 85.9703 13 87.8973 13H90.4082C92.3353 13 93.7659 13.6131 94.817 14.5766C96.0141 15.6861 96.744 17.2336 96.744 18.9854C96.744 20.5621 96.1601 21.9635 95.1966 23.0146C94.0871 24.2117 92.5396 24.9708 90.3791 24.9708H87.9265ZM87.9265 16.1825C86.8462 16.1825 86.1747 16.4745 85.6783 16.9708C85.1236 17.4963 84.8024 18.2263 84.8024 19.0146C84.8024 19.7445 85.0944 20.4161 85.5323 20.9124C86.0579 21.4672 86.817 21.8175 87.9265 21.8175H90.4374C91.5761 21.8175 92.3353 21.4672 92.8316 20.9124C93.2988 20.4161 93.5615 19.7445 93.5615 19.0146C93.5615 18.2263 93.2404 17.4672 92.6856 16.9708C92.1601 16.5036 91.4885 16.1825 90.4374 16.1825H87.9265Z" fill="#0E293B"/>
<path d="M107.898 13.0293C109.591 13.0293 110.701 13.5257 111.489 14.314C112.307 15.1315 112.803 16.2994 112.803 17.4965C112.803 18.5476 112.423 19.5695 111.752 20.3578C110.934 21.3213 109.708 21.9636 107.869 21.9636H102.38V24.9709H99.168V13.7592C99.168 13.2629 99.4307 13.0293 99.9563 13.0293H107.898ZM107.956 19.0147C108.657 19.0147 109.066 18.8103 109.329 18.46C109.504 18.2264 109.621 17.9344 109.621 17.6132C109.621 17.2629 109.504 16.9709 109.329 16.7081C109.066 16.387 108.657 16.1826 107.956 16.1826H102.613C102.467 16.1826 102.38 16.241 102.38 16.4162V19.0147H107.956Z" fill="#0E293B"/>
<path d="M123.664 13.0293C125.357 13.0293 126.466 13.5257 127.255 14.314C128.072 15.1315 128.569 16.2994 128.569 17.4965C128.569 18.5476 128.189 19.5695 127.518 20.3578C126.7 21.3213 125.474 21.9636 123.634 21.9636H118.145V24.9709H114.934V13.7592C114.934 13.2629 115.196 13.0293 115.722 13.0293H123.664ZM123.722 19.0147C124.423 19.0147 124.831 18.8103 125.094 18.46C125.269 18.2264 125.386 17.9344 125.386 17.6132C125.386 17.2629 125.269 16.9709 125.094 16.7081C124.831 16.387 124.423 16.1826 123.722 16.1826H118.379C118.233 16.1826 118.145 16.241 118.145 16.4162V19.0147H123.722Z" fill="#0E293B"/>
<path d="M133.97 13.0293V24.9709H130.759V13.0293H133.97Z" fill="#0E293B"/>
<path d="M148.977 24.9708H142.729C140.598 24.9708 139.021 24.2409 137.912 23.0146C136.948 21.9635 136.364 20.5621 136.364 18.9854C136.364 17.2628 137.094 15.6861 138.291 14.5766C139.342 13.6131 140.773 13 142.7 13H148.948V16.1533H142.729C141.649 16.1533 140.977 16.4453 140.481 16.9416C139.926 17.4672 139.605 18.1971 139.605 18.9854C139.605 19.7153 139.897 20.3869 140.335 20.8832C140.861 21.438 141.62 21.7883 142.729 21.7883H148.977V24.9708Z" fill="#0E293B"/>
<path d="M154.613 13.0293V17.9344L160.044 13.5257C160.219 13.3797 160.423 13.2045 160.54 13.0293H165.007C164.949 13.1461 164.803 13.2629 164.686 13.3505L158.117 18.4308C158.058 18.4892 158 18.5476 158 18.6351C158 18.7227 158.029 18.7519 158.117 18.8395L165.153 24.533C165.299 24.679 165.474 24.8249 165.62 24.9709H160.861C160.715 24.8249 160.54 24.6498 160.336 24.4746L154.613 19.6862V24.9709H151.372V13.0293H154.613Z" fill="#0E293B"/>
<path d="M180.131 16.1826H171.547C171.167 16.1826 170.934 16.2702 170.817 16.4162C170.671 16.5622 170.583 16.7957 170.583 17.0293C170.583 17.2921 170.7 17.5257 170.875 17.6716C171.021 17.7884 171.197 17.8468 171.576 17.8468H176.832C178.175 17.8468 179.08 18.2848 179.722 18.9271C180.365 19.5695 180.744 20.4746 180.744 21.4089C180.744 22.2848 180.423 23.1023 179.868 23.7446C179.226 24.5038 178.262 24.9709 176.861 24.9709H167.547V21.9052H176.248C176.744 21.9052 176.978 21.7884 177.153 21.6133C177.27 21.4673 177.357 21.2921 177.357 21.0585C177.357 20.8249 177.27 20.5913 177.124 20.4162C176.978 20.241 176.744 20.1534 176.277 20.1534H171.43C169.854 20.1534 168.919 19.7154 168.277 19.0731C167.635 18.4308 167.284 17.5549 167.284 16.5913C167.284 15.6278 167.664 14.7519 168.306 14.1096C168.948 13.4673 169.854 13.0293 171.43 13.0293H180.189V16.1826H180.131Z" fill="#0E293B"/>
<path d="M59.1967 13.0293C60.8902 13.0293 61.9997 13.5257 62.788 14.314C63.6055 15.1315 64.1019 16.2994 64.1019 17.4965C64.1019 18.5476 63.7223 19.5695 63.0508 20.3578C62.2332 21.3213 61.007 21.9636 59.1675 21.9636H53.6785V24.9709H50.4668V13.7592C50.4668 13.2629 50.7296 13.0293 51.2551 13.0293H59.1967ZM59.2551 19.0147C59.9559 19.0147 60.3646 18.8103 60.6274 18.46C60.8026 18.2264 60.9194 17.9344 60.9194 17.6132C60.9194 17.2629 60.8026 16.9709 60.6274 16.7081C60.3646 16.387 59.9559 16.1826 59.2551 16.1826H53.9121C53.7661 16.1826 53.6785 16.241 53.6785 16.4162V19.0147H59.2551Z" fill="white"/>
<path d="M69.4744 24.9709H66.2627V13.7592C66.2627 13.2629 66.5255 13.0293 67.051 13.0293H75.5182C76.978 13.0293 77.9123 13.4673 78.5839 14.168C79.1678 14.7811 79.5474 15.6278 79.5474 16.5038C79.5474 17.4673 79.2554 18.3724 78.4087 18.9855C79.197 19.4527 79.5474 20.095 79.5474 21.4673V23.8614C79.5474 24.387 79.5766 24.6498 79.6058 25.0001H76.3649C76.3357 24.7373 76.3065 24.4746 76.3065 24.2118V21.8176C76.3065 21.0585 75.9269 20.7665 74.9926 20.7665H69.416V24.9709H69.4744ZM75.1386 17.9928C75.5766 17.9928 75.8394 17.8468 76.0437 17.6132C76.1897 17.4381 76.2773 17.2337 76.2773 17.0001C76.2773 16.7665 76.1897 16.5038 76.0145 16.3286C75.8393 16.1242 75.5474 16.0074 75.1386 16.0074H69.7372C69.562 16.0074 69.4744 16.1242 69.4744 16.2702V17.9928H75.1386Z" fill="white"/>
<path d="M87.9265 24.9708C85.7951 24.9708 84.2185 24.2409 83.109 23.0146C82.1455 21.9635 81.5615 20.5621 81.5615 18.9854C81.5615 17.2628 82.2915 15.6861 83.4885 14.5766C84.5396 13.6131 85.9703 13 87.8973 13H90.4082C92.3353 13 93.7659 13.6131 94.817 14.5766C96.0141 15.6861 96.744 17.2336 96.744 18.9854C96.744 20.5621 96.1601 21.9635 95.1966 23.0146C94.0871 24.2117 92.5396 24.9708 90.3791 24.9708H87.9265ZM87.9265 16.1825C86.8462 16.1825 86.1747 16.4745 85.6783 16.9708C85.1236 17.4963 84.8024 18.2263 84.8024 19.0146C84.8024 19.7445 85.0944 20.4161 85.5323 20.9124C86.0579 21.4672 86.817 21.8175 87.9265 21.8175H90.4374C91.5761 21.8175 92.3353 21.4672 92.8316 20.9124C93.2988 20.4161 93.5615 19.7445 93.5615 19.0146C93.5615 18.2263 93.2404 17.4672 92.6856 16.9708C92.1601 16.5036 91.4885 16.1825 90.4374 16.1825H87.9265Z" fill="white"/>
<path d="M107.898 13.0293C109.591 13.0293 110.701 13.5257 111.489 14.314C112.307 15.1315 112.803 16.2994 112.803 17.4965C112.803 18.5476 112.423 19.5695 111.752 20.3578C110.934 21.3213 109.708 21.9636 107.869 21.9636H102.38V24.9709H99.168V13.7592C99.168 13.2629 99.4307 13.0293 99.9563 13.0293H107.898ZM107.956 19.0147C108.657 19.0147 109.066 18.8103 109.329 18.46C109.504 18.2264 109.621 17.9344 109.621 17.6132C109.621 17.2629 109.504 16.9709 109.329 16.7081C109.066 16.387 108.657 16.1826 107.956 16.1826H102.613C102.467 16.1826 102.38 16.241 102.38 16.4162V19.0147H107.956Z" fill="white"/>
<path d="M123.664 13.0293C125.357 13.0293 126.466 13.5257 127.255 14.314C128.072 15.1315 128.569 16.2994 128.569 17.4965C128.569 18.5476 128.189 19.5695 127.518 20.3578C126.7 21.3213 125.474 21.9636 123.634 21.9636H118.145V24.9709H114.934V13.7592C114.934 13.2629 115.196 13.0293 115.722 13.0293H123.664ZM123.722 19.0147C124.423 19.0147 124.831 18.8103 125.094 18.46C125.269 18.2264 125.386 17.9344 125.386 17.6132C125.386 17.2629 125.269 16.9709 125.094 16.7081C124.831 16.387 124.423 16.1826 123.722 16.1826H118.379C118.233 16.1826 118.145 16.241 118.145 16.4162V19.0147H123.722Z" fill="white"/>
<path d="M133.97 13.0293V24.9709H130.759V13.0293H133.97Z" fill="white"/>
<path d="M148.977 24.9708H142.729C140.598 24.9708 139.021 24.2409 137.912 23.0146C136.948 21.9635 136.364 20.5621 136.364 18.9854C136.364 17.2628 137.094 15.6861 138.291 14.5766C139.342 13.6131 140.773 13 142.7 13H148.948V16.1533H142.729C141.649 16.1533 140.977 16.4453 140.481 16.9416C139.926 17.4672 139.605 18.1971 139.605 18.9854C139.605 19.7153 139.897 20.3869 140.335 20.8832C140.861 21.438 141.62 21.7883 142.729 21.7883H148.977V24.9708Z" fill="white"/>
<path d="M154.613 13.0293V17.9344L160.044 13.5257C160.219 13.3797 160.423 13.2045 160.54 13.0293H165.007C164.949 13.1461 164.803 13.2629 164.686 13.3505L158.117 18.4308C158.058 18.4892 158 18.5476 158 18.6351C158 18.7227 158.029 18.7519 158.117 18.8395L165.153 24.533C165.299 24.679 165.474 24.8249 165.62 24.9709H160.861C160.715 24.8249 160.54 24.6498 160.336 24.4746L154.613 19.6862V24.9709H151.372V13.0293H154.613Z" fill="white"/>
<path d="M180.131 16.1826H171.547C171.167 16.1826 170.934 16.2702 170.817 16.4162C170.671 16.5622 170.583 16.7957 170.583 17.0293C170.583 17.2921 170.7 17.5257 170.875 17.6716C171.021 17.7884 171.197 17.8468 171.576 17.8468H176.832C178.175 17.8468 179.08 18.2848 179.722 18.9271C180.365 19.5695 180.744 20.4746 180.744 21.4089C180.744 22.2848 180.423 23.1023 179.868 23.7446C179.226 24.5038 178.262 24.9709 176.861 24.9709H167.547V21.9052H176.248C176.744 21.9052 176.978 21.7884 177.153 21.6133C177.27 21.4673 177.357 21.2921 177.357 21.0585C177.357 20.8249 177.27 20.5913 177.124 20.4162C176.978 20.241 176.744 20.1534 176.277 20.1534H171.43C169.854 20.1534 168.919 19.7154 168.277 19.0731C167.635 18.4308 167.284 17.5549 167.284 16.5913C167.284 15.6278 167.664 14.7519 168.306 14.1096C168.948 13.4673 169.854 13.0293 171.43 13.0293H180.189V16.1826H180.131Z" fill="white"/>
<defs>
<linearGradient id="paint0_linear_2_2010" x1="18.301" y1="0.685439" x2="9.59565" y2="36.6676" gradientUnits="userSpaceOnUse">
<stop stop-color="#05BAFF"/>
<stop offset="1" stop-color="#003CFF"/>
</linearGradient>
<linearGradient id="paint1_linear_2_2010" x1="24.844" y1="2.2687" x2="16.1387" y2="38.2509" gradientUnits="userSpaceOnUse">
<stop stop-color="#05D6FF"/>
<stop offset="1" stop-color="#003CFF"/>
</linearGradient>
</defs>
</svg>
