<svg width="54" height="54" viewBox="0 0 54 54" fill="none" xmlns="http://www.w3.org/2000/svg">
<rect x="0.5" y="0.5" width="53" height="53" rx="26.5" fill="white"/>
<rect x="0.5" y="0.5" width="53" height="53" rx="26.5" stroke="#E3E5E7"/>
<path d="M20.6796 23.794C21.0538 20.4909 23.7709 18 27 18C30.2291 18 32.9462 20.4909 33.3204 23.794L33.6652 26.8385C33.7509 27.595 34.0575 28.3069 34.5445 28.88C35.5779 30.0964 34.7392 32 33.1699 32H20.8301C19.2608 32 18.4221 30.0964 19.4555 28.88C19.9425 28.3069 20.2491 27.595 20.3348 26.8385L20.6796 23.794Z" stroke="#0E293B" stroke-width="1.5" stroke-linejoin="round"/>
<path d="M30 34C29.5633 35.1652 28.385 36 27 36C25.615 36 24.4367 35.1652 24 34" stroke="#0E293B" stroke-width="1.5" stroke-linecap="round"/>
</svg>
