<svg width="60" height="61" viewBox="0 0 60 61" fill="none" xmlns="http://www.w3.org/2000/svg">
<rect y="0.5" width="60" height="60" rx="30" fill="#EDA680"/>
<path fill-rule="evenodd" clip-rule="evenodd" d="M27.8277 17.6526L21.11 20.7812C19.1669 21.6862 17.8846 23.7128 18.0082 25.9373C18.4916 34.6338 20.9219 38.4623 27.2368 42.9423C28.9097 44.1292 31.1148 44.1321 32.7865 42.9433C39.1208 38.4389 41.4641 34.5562 41.99 25.9674C42.1271 23.7283 40.8427 21.6801 38.8861 20.7688L32.195 17.6526C30.8048 17.0051 29.2179 17.0051 27.8277 17.6526ZM28.6667 37.167C28.6667 36.4306 29.2637 35.8337 30 35.8337C30.7364 35.8337 31.3334 36.4306 31.3334 37.167C31.3334 37.9034 30.7364 38.5003 30 38.5003C29.2637 38.5003 28.6667 37.9034 28.6667 37.167ZM29 33.167C29 33.7193 29.4478 34.167 30 34.167C30.5523 34.167 31 33.7193 31 33.167L31 23.8337C31 23.2814 30.5523 22.8337 30 22.8337C29.4478 22.8337 29 23.2814 29 23.8337L29 33.167Z" fill="#0E293B"/>
</svg>
