<svg width="61" height="60" viewBox="0 0 61 60" fill="none" xmlns="http://www.w3.org/2000/svg">
<rect x="0.5" width="60" height="60" rx="30" fill="#80ED99"/>
<path fill-rule="evenodd" clip-rule="evenodd" d="M30.4993 43.3337C37.8631 43.3337 43.8327 37.3641 43.8327 30.0003C43.8327 22.6365 37.8631 16.667 30.4993 16.667C23.1356 16.667 17.166 22.6365 17.166 30.0003C17.166 37.3641 23.1356 43.3337 30.4993 43.3337ZM36.622 26.6143C36.9611 26.1784 36.8826 25.5501 36.4466 25.211C36.0107 24.8719 35.3824 24.9505 35.0433 25.3864L29.7007 32.2556C29.5819 32.4083 29.3584 32.4281 29.2146 32.2987L25.835 29.2571C25.4245 28.8876 24.7922 28.9209 24.4227 29.3314C24.0533 29.7419 24.0865 30.3742 24.4971 30.7437L27.8766 33.7853C28.8835 34.6914 30.4478 34.5527 31.2794 33.4835L36.622 26.6143Z" fill="#0E293B"/>
</svg>
