<svg width="61" height="60" viewBox="0 0 61 60" fill="none" xmlns="http://www.w3.org/2000/svg">
<rect x="0.5" width="60" height="60" rx="30" fill="#48CAE4"/>
<path fill-rule="evenodd" clip-rule="evenodd" d="M23.1666 16.667C20.6944 16.667 19.2833 19.4893 20.7666 21.467L25.8166 28.2003C26.6166 29.267 26.6166 30.7337 25.8166 31.8003L20.7666 38.5337C19.2833 40.5114 20.6944 43.3337 23.1666 43.3337H37.8332C40.3054 43.3337 41.7165 40.5114 40.2332 38.5337L35.1832 31.8003C34.3832 30.7337 34.3832 29.267 35.1832 28.2003L40.2332 21.467C41.7165 19.4893 40.3054 16.667 37.8333 16.667H23.1666ZM31.2808 33.6431C30.8805 33.1427 30.1194 33.1427 29.719 33.6431L26.4663 37.709C25.9425 38.3637 26.4087 39.3337 27.2472 39.3337H33.7526C34.5911 39.3337 35.0573 38.3637 34.5335 37.709L31.2808 33.6431Z" fill="#0E293B"/>
</svg>
