<svg width="54" height="54" viewBox="0 0 54 54" fill="none" xmlns="http://www.w3.org/2000/svg">
<rect x="0.5" y="0.5" width="53" height="53" rx="26.5" fill="white"/>
<rect x="0.5" y="0.5" width="53" height="53" rx="26.5" stroke="#E3E5E7"/>
<ellipse cx="27" cy="31.5" rx="6" ry="2.5" stroke="#0E293B" stroke-width="1.5" stroke-linejoin="round"/>
<circle cx="27" cy="23" r="3" stroke="#0E293B" stroke-width="1.5" stroke-linejoin="round"/>
<path fill-rule="evenodd" clip-rule="evenodd" d="M21.4455 28.2617C20.2069 28.3133 19.0691 28.5364 18.1859 28.8897C17.6812 29.0915 17.2225 29.3507 16.8776 29.6768C16.5312 30.0045 16.25 30.4514 16.25 31.0002C16.25 31.5491 16.5312 31.996 16.8776 32.3236C17.2225 32.6498 17.6812 32.9089 18.1859 33.1108C18.6857 33.3107 19.267 33.469 19.902 33.578C19.4083 33.0455 19.0985 32.4506 19.0199 31.8197C18.9234 31.7872 18.831 31.7533 18.743 31.7181C18.3429 31.558 18.0694 31.3862 17.9083 31.2338C17.7498 31.084 17.75 31.0048 17.75 31.0003L17.75 31.0002L17.75 31.0002C17.75 30.9956 17.7498 30.9165 17.9083 30.7667C18.0694 30.6142 18.3429 30.4424 18.743 30.2824C18.946 30.2012 19.172 30.1268 19.4179 30.0611C19.8316 29.3712 20.5345 28.7562 21.4455 28.2617Z" fill="#0E293B"/>
<path fill-rule="evenodd" clip-rule="evenodd" d="M34.9803 31.8197C34.9016 32.4506 34.5918 33.0455 34.0982 33.578C34.7331 33.469 35.3144 33.3107 35.8142 33.1108C36.3189 32.9089 36.7777 32.6498 37.1226 32.3236C37.469 31.996 37.7502 31.5491 37.7502 31.0002C37.7502 30.4514 37.469 30.0045 37.1226 29.6768C36.7777 29.3507 36.3189 29.0916 35.8142 28.8897C34.931 28.5364 33.7933 28.3133 32.5547 28.2617C33.4657 28.7562 34.1686 29.3712 34.5823 30.0611C34.8281 30.1268 35.0542 30.2012 35.2571 30.2824C35.6573 30.4424 35.9307 30.6142 36.0919 30.7667C36.2504 30.9165 36.2502 30.9956 36.2502 31.0002V31.0002V31.0003C36.2502 31.0048 36.2504 31.084 36.0919 31.2338C35.9307 31.3862 35.6573 31.558 35.2571 31.7181C35.1691 31.7533 35.0767 31.7872 34.9803 31.8197Z" fill="#0E293B"/>
<path fill-rule="evenodd" clip-rule="evenodd" d="M31.5142 25.1522C31.2943 25.6126 31.0061 26.0341 30.6626 26.4036C31.0584 26.6243 31.5144 26.75 31.9998 26.75C33.5186 26.75 34.7498 25.5188 34.7498 24C34.7498 22.4812 33.5186 21.25 31.9998 21.25C31.8955 21.25 31.7926 21.2558 31.6914 21.2671C31.8634 21.7327 31.9681 22.231 31.9937 22.75C31.9957 22.75 31.9978 22.75 31.9998 22.75C32.6902 22.75 33.2498 23.3096 33.2498 24C33.2498 24.6904 32.6902 25.25 31.9998 25.25C31.8276 25.25 31.6635 25.2152 31.5142 25.1522Z" fill="#0E293B"/>
<path fill-rule="evenodd" clip-rule="evenodd" d="M22.3084 21.2671C22.2072 21.2558 22.1043 21.25 22 21.25C20.4812 21.25 19.25 22.4812 19.25 24C19.25 25.5188 20.4812 26.75 22 26.75C22.4854 26.75 22.9414 26.6243 23.3372 26.4036C22.9937 26.0341 22.7055 25.6126 22.4856 25.1522C22.3363 25.2152 22.1722 25.25 22 25.25C21.3096 25.25 20.75 24.6904 20.75 24C20.75 23.3096 21.3096 22.75 22 22.75C22.002 22.75 22.0041 22.75 22.0061 22.75C22.0317 22.231 22.1364 21.7327 22.3084 21.2671Z" fill="#0E293B"/>
</svg>
