<svg width="60" height="60" viewBox="0 0 60 60" fill="none" xmlns="http://www.w3.org/2000/svg">
<rect width="60" height="60" rx="30" fill="#48CAE4"/>
<path fill-rule="evenodd" clip-rule="evenodd" d="M21.11 20.2812L27.8277 17.1526C29.2179 16.5051 30.8048 16.5051 32.195 17.1526L38.8861 20.2688C40.8427 21.1801 42.1271 23.2283 41.99 25.4674C41.4641 34.0562 39.1208 37.9389 32.7865 42.4433C31.1148 43.6321 28.9097 43.6292 27.2368 42.4423C20.9219 37.9623 18.4916 34.1338 18.0082 25.4373C17.8846 23.2128 19.1669 21.1862 21.11 20.2812ZM34.7525 27.9922C35.1162 27.5765 35.0741 26.9448 34.6585 26.5811C34.2428 26.2174 33.6111 26.2595 33.2474 26.6752L29.4208 31.0484C29.3034 31.1826 29.101 31.2006 28.9617 31.0891L26.6247 29.2195C26.1934 28.8745 25.5641 28.9444 25.2191 29.3756C24.8741 29.8069 24.944 30.4362 25.3753 30.7812L27.7124 32.6509C28.6874 33.4309 30.1037 33.3051 30.926 32.3654L34.7525 27.9922Z" fill="#0E293B"/>
</svg>
